<svg width="159" height="46" viewBox="0 0 159 46" fill="none" xmlns="http://www.w3.org/2000/svg">
<path d="M17.6651 45.2285C27.4212 45.2285 35.3301 37.3195 35.3301 27.5634C35.3301 17.8072 27.4212 9.89833 17.6651 9.89833C7.90892 9.89833 0 17.8072 0 27.5634C0 37.3195 7.90892 45.2285 17.6651 45.2285Z" fill="#E22B2B"/>
<path d="M61.8877 45.2285C71.6439 45.2285 79.5528 37.3195 79.5528 27.5634C79.5528 17.8072 71.6439 9.89833 61.8877 9.89833C52.1316 9.89833 44.2227 17.8072 44.2227 27.5634C44.2227 37.3195 52.1316 45.2285 61.8877 45.2285Z" fill="#2150AC"/>
<path d="M39.7701 45.2239C52.2584 45.2239 62.3821 35.1002 62.3821 22.6119C62.3821 10.1237 52.2584 0 39.7701 0C27.2819 0 17.1582 10.1237 17.1582 22.6119C17.1582 35.1002 27.2819 45.2239 39.7701 45.2239Z" fill="#F2D430"/>
<path d="M44.2227 27.5709C44.2212 30.3741 44.8879 33.1374 46.1676 35.6315C47.4472 38.1257 49.3029 40.2789 51.5809 41.9127C54.1671 40.3307 56.4088 38.2447 58.1725 35.7789C59.9363 33.313 61.1861 30.5176 61.8476 27.5589C62.5091 24.6002 62.5688 21.5387 62.0231 18.5565C61.4775 15.5743 60.3376 12.7323 58.6713 10.1995C54.6131 10.9514 50.9462 13.1003 48.3069 16.2734C45.6677 19.4466 44.2227 23.4436 44.2227 27.5709Z" fill="#94BE50"/>
<path d="M35.3309 27.567C35.3301 23.441 33.8853 19.4453 31.2468 16.273C28.6084 13.1008 24.9429 10.952 20.886 10.1995C19.2201 12.7321 18.0805 15.5739 17.535 18.5559C16.9896 21.5378 17.0494 24.599 17.7108 27.5574C18.3723 30.5157 19.622 33.3108 21.3856 35.7765C23.1492 38.2421 25.3906 40.3279 27.9765 41.9098C30.2539 40.2755 32.1089 38.1219 33.3879 35.6276C34.6669 33.1333 35.3329 30.3701 35.3309 27.567Z" fill="#ED9846"/>
<path d="M79.5487 22.3235H0V24.9717H79.5487V22.3235Z" fill="white"/>
<path d="M79.5487 32.3068H0V34.955H79.5487V32.3068Z" fill="white"/>
<g opacity="0.6">
<path opacity="0.6" d="M91.4803 42.6143C90.7329 42.1703 90.1366 41.5116 89.769 40.7239C89.3518 39.8134 89.1476 38.8198 89.172 37.8186C89.1469 36.8225 89.3511 35.8341 89.769 34.9296C90.1402 34.1483 90.736 33.4955 91.4803 33.0547C92.2785 32.6017 93.1849 32.3743 94.1025 32.3969C94.7911 32.3893 95.4757 32.5031 96.1248 32.733C96.723 32.9486 97.2665 33.2931 97.7166 33.7422L97.2534 34.6831C96.8106 34.2852 96.3024 33.9669 95.7511 33.7422C95.228 33.5457 94.6729 33.4477 94.114 33.4533C93.6055 33.4249 93.0971 33.5125 92.6273 33.7093C92.1576 33.9062 91.7387 34.2072 91.4023 34.5897C90.706 35.5157 90.3643 36.6605 90.4393 37.8166C90.3641 38.979 90.7028 40.1304 91.3955 41.0667C91.7313 41.4524 92.1511 41.7559 92.6225 41.9541C93.0939 42.1522 93.6045 42.2397 94.115 42.2098C94.6736 42.2169 95.2286 42.1206 95.7521 41.9257C96.3032 41.7009 96.8115 41.3826 97.2543 40.9849L97.7175 41.9257C97.2673 42.3745 96.7239 42.7187 96.1257 42.934C95.4766 43.1639 94.792 43.2777 94.1034 43.27C93.1857 43.2937 92.2789 43.067 91.4803 42.6143Z" fill="#ffffff" stroke="#ffffff" stroke-width="0.5" stroke-miterlimit="10"/>
<path opacity="0.6" d="M101.495 42.6216C100.759 42.1733 100.174 41.5149 99.815 40.7312C99.4035 39.8249 99.2017 38.8374 99.2247 37.8422C99.2002 36.8447 99.3993 35.8543 99.8073 34.9436C100.164 34.1626 100.747 33.5067 101.481 33.061C102.274 32.6294 103.163 32.4033 104.066 32.4033C104.969 32.4033 105.858 32.6294 106.651 33.061C107.385 33.507 107.968 34.1628 108.325 34.9436C108.71 35.8583 108.908 36.8409 108.907 37.8333C108.905 38.8257 108.705 39.8078 108.318 40.7216C107.956 41.5032 107.371 42.1608 106.637 42.6119C105.85 43.0467 104.966 43.2753 104.068 43.2767C103.169 43.278 102.284 43.052 101.496 42.6196L101.495 42.6216ZM106.696 41.0808C107.309 40.1083 107.635 38.9822 107.637 37.8323C107.638 36.6824 107.314 35.5555 106.703 34.5816C106.363 34.2222 105.954 33.936 105.499 33.7407C105.045 33.5453 104.555 33.4449 104.061 33.4455C103.566 33.4462 103.077 33.5479 102.623 33.7444C102.169 33.9409 101.76 34.2281 101.421 34.5883C100.74 35.5239 100.407 36.6686 100.48 37.8239C100.406 38.9859 100.739 40.1373 101.421 41.0808C101.758 41.4437 102.166 41.7331 102.62 41.9311C103.074 42.1291 103.563 42.2312 104.058 42.2312C104.553 42.2312 105.043 42.1291 105.497 41.9311C105.951 41.7331 106.359 41.4437 106.696 41.0808Z" fill="#ffffff" stroke="#ffffff" stroke-width="0.5" stroke-miterlimit="10"/>
<path opacity="0.6" d="M119.689 32.5228V43.1609H118.733L112.309 34.6V43.1609H111.158V32.5228H112.1L118.525 41.0838V32.5228H119.689Z" fill="#ffffff" stroke="#ffffff" stroke-width="0.5" stroke-miterlimit="10"/>
<path opacity="0.6" d="M121.696 41.9324L122.159 40.9916C122.633 41.4079 123.181 41.7322 123.773 41.9478C124.391 42.1478 125.037 42.2438 125.686 42.2319C126.382 42.2753 127.074 42.1006 127.666 41.7321C127.891 41.574 128.073 41.3617 128.194 41.1148C128.316 40.8679 128.373 40.5943 128.361 40.3194C128.367 40.1586 128.341 39.9982 128.283 39.848C128.225 39.6978 128.138 39.561 128.025 39.446C127.775 39.2056 127.474 39.0243 127.144 38.9153C126.666 38.7538 126.18 38.6191 125.687 38.5119C125 38.371 124.326 38.1762 123.67 37.9293C123.172 37.7415 122.73 37.4304 122.385 37.025C122.041 36.5854 121.866 36.037 121.892 35.4794C121.882 34.907 122.05 34.3458 122.373 33.8731C122.713 33.3931 123.18 33.0177 123.721 32.7898C124.367 32.5197 125.062 32.3885 125.761 32.4046C126.463 32.3989 127.161 32.5152 127.824 32.7484C128.429 32.9578 128.981 33.3 129.437 33.7499L128.955 34.6907C128.507 34.2933 127.994 33.9751 127.439 33.7499C126.902 33.5461 126.331 33.4445 125.757 33.4504C125.069 33.4105 124.387 33.5968 123.815 33.981C123.588 34.1478 123.405 34.3677 123.282 34.6215C123.16 34.8754 123.101 35.1554 123.112 35.437C123.098 35.6749 123.147 35.9123 123.255 36.1249C123.362 36.3376 123.524 36.5179 123.724 36.6475C124.309 36.9847 124.945 37.2222 125.607 37.3505C126.524 37.5694 127.243 37.771 127.766 37.9552C128.263 38.1235 128.712 38.4108 129.073 38.7921C129.434 39.2005 129.622 39.7341 129.596 40.2789C129.606 40.8421 129.437 41.3939 129.114 41.8554C128.768 42.3295 128.294 42.695 127.748 42.9089C127.084 43.1706 126.376 43.2974 125.663 43.2815C124.217 43.3535 122.798 42.871 121.696 41.9324Z" fill="#ffffff" stroke="#ffffff" stroke-width="0.5" stroke-miterlimit="10"/>
<path opacity="0.6" d="M133.49 42.6216C132.753 42.1733 132.168 41.5149 131.809 40.7312C131.398 39.8249 131.196 38.8374 131.219 37.8422C131.195 36.8447 131.394 35.8544 131.801 34.9436C132.158 34.1628 132.741 33.507 133.475 33.061C134.268 32.6294 135.157 32.4033 136.06 32.4033C136.963 32.4033 137.852 32.6294 138.645 33.061C139.379 33.507 139.962 34.1628 140.319 34.9436C140.704 35.8584 140.902 36.841 140.9 37.8334C140.899 38.8258 140.699 39.8079 140.311 40.7216C139.949 41.5032 139.364 42.1608 138.63 42.6119C137.843 43.0467 136.959 43.2753 136.061 43.2767C135.162 43.278 134.277 43.052 133.49 42.6196V42.6216ZM138.69 41.0808C139.303 40.1083 139.629 38.9822 139.631 37.8323C139.632 36.6824 139.309 35.5555 138.697 34.5816C138.358 34.2221 137.948 33.9358 137.494 33.7404C137.039 33.5449 136.55 33.4445 136.055 33.4451C135.56 33.4457 135.071 33.5475 134.617 33.7441C134.163 33.9406 133.754 34.2279 133.415 34.5883C132.733 35.5238 132.4 36.6685 132.474 37.8239C132.4 38.986 132.733 40.1374 133.415 41.0808C133.752 41.4437 134.16 41.7331 134.614 41.9311C135.068 42.1291 135.557 42.2312 136.052 42.2312C136.548 42.2312 137.037 42.1291 137.491 41.9311C137.945 41.7331 138.353 41.4437 138.69 41.0808Z" fill="#ffffff" stroke="#ffffff" stroke-width="0.5" stroke-miterlimit="10"/>
<path opacity="0.6" d="M143.137 32.5228H144.363V42.1151H149.697V43.1609H143.138L143.137 32.5228Z" fill="#ffffff" stroke="#ffffff" stroke-width="0.5" stroke-miterlimit="10"/>
<path opacity="0.6" d="M151.276 32.5228H158V33.5387H152.487V37.2443H157.701V38.2757H152.487V42.145H158V43.1609H151.276V32.5228Z" fill="#ffffff" stroke="#ffffff" stroke-width="0.5" stroke-miterlimit="10"/>
</g>
<path d="M91.6157 26.3696C90.6846 26.1438 89.8031 25.7481 89.0156 25.2025L90.2232 22.4801C90.9261 22.9269 91.6873 23.2746 92.4853 23.5134C93.2659 23.7498 94.0771 23.8705 94.8927 23.8716C95.5379 23.9054 96.1822 23.7897 96.7754 23.5336C96.9625 23.4639 97.1247 23.3401 97.2414 23.1779C97.358 23.0158 97.4238 22.8227 97.4304 22.6231C97.437 22.4234 97.3841 22.2264 97.2784 22.0569C97.1728 21.8874 97.0192 21.7532 96.837 21.6712C96.1313 21.329 95.3798 21.0909 94.6058 20.9644C93.4924 20.7777 92.4105 20.4367 91.3913 19.9513C90.7295 19.6418 90.1713 19.1475 89.7841 18.528C89.4613 17.9171 89.3027 17.2329 89.3238 16.5423C89.3155 15.6799 89.5808 14.837 90.0817 14.1348C90.6228 13.3893 91.3597 12.808 92.2108 12.4554C93.2016 12.0381 94.2686 11.8324 95.3434 11.8516C96.3798 11.8495 97.411 11.9977 98.4048 12.2917C99.2509 12.5122 100.042 12.9056 100.728 13.4473L99.5411 16.1696C98.9188 15.7292 98.236 15.3812 97.514 15.1364C96.8286 14.9017 96.1093 14.7806 95.3848 14.7781C94.7989 14.7505 94.217 14.8891 93.7063 15.1778C93.5133 15.2829 93.3523 15.4383 93.2404 15.6275C93.1285 15.8167 93.0699 16.0326 93.0708 16.2525C93.0634 16.4787 93.1442 16.699 93.2961 16.8668C93.5382 17.0857 93.8246 17.2499 94.1358 17.3483C94.7373 17.5584 95.353 17.7258 95.978 17.8491C97.0603 18.0539 98.1105 18.4017 99.101 18.8833C99.7578 19.1955 100.314 19.6847 100.708 20.296C101.035 20.8873 101.198 21.5553 101.179 22.2307C101.202 22.8825 101.063 23.5298 100.774 24.1142C100.484 24.6986 100.054 25.2017 99.5209 25.578C98.1334 26.4693 96.4983 26.896 94.8523 26.7962C93.7593 26.7975 92.671 26.6541 91.6157 26.3696Z" fill="#ffffff"/>
<path d="M106.303 15.1553H101.962V12.0429H114.536V15.1553H110.193V26.6235H106.303V15.1553Z" fill="#ffffff"/>
<path d="M124.005 23.6039H117.535L116.245 26.6132H112.393L119.21 12.0355H122.24L129.077 26.6132H125.289L124.005 23.6039ZM122.753 20.7149L120.768 16.108L118.782 20.7149H122.753Z" fill="#ffffff"/>
<path d="M132.655 25.8679C131.548 25.2662 130.643 24.3509 130.054 23.237C129.428 22.0229 129.114 20.6712 129.143 19.3051C129.115 17.9493 129.429 16.6081 130.054 15.405C130.646 14.2957 131.55 13.3845 132.655 12.7847C133.874 12.1408 135.238 11.8199 136.617 11.8525C137.559 11.8505 138.495 11.9958 139.392 12.283C140.186 12.515 140.922 12.9127 141.552 13.4501L140.384 16.1725C139.326 15.3574 138.034 14.9056 136.698 14.884C136.193 14.8528 135.687 14.937 135.219 15.1302C134.75 15.3234 134.332 15.6206 133.996 15.9992C133.302 16.9561 132.969 18.1272 133.054 19.3061C132.968 20.4946 133.301 21.6756 133.996 22.6438C134.331 23.0252 134.748 23.325 135.216 23.5201C135.685 23.7152 136.192 23.8005 136.698 23.7695C138.033 23.7471 139.326 23.2949 140.383 22.4801L141.551 25.2024C140.921 25.7396 140.185 26.1374 139.391 26.3696C138.494 26.6568 137.558 26.8021 136.616 26.8C135.238 26.8328 133.874 26.5118 132.655 25.8679Z" fill="#ffffff"/>
<path d="M153.235 26.6235L147.398 20.0078V26.6235H143.546V12.0429H147.398V18.3081L153.069 12.0429H157.574L151.122 18.9629L157.798 26.6235H153.235Z" fill="#ffffff"/>
</svg>
